# xmcd
#
# Track frame offsets: 
#        150
#        10721
#        23752
#        34351
#        44846
#        56659
#        67353
#        78015
#        90053
#        100736
#        109880
#        120267
#        132162
#        144935
#        156995
#        166450
#        177070
#        187820
#        196592
#        207212
#        218320
#        228707
#        238909
#        248150
#        260220
#        271418
#        281356
#        290555
#        300047
#        310512
#        320693
#        331049
#        345588
#
# Disc length: 4764 seconds
#
# Revision: 1
# Processed by: cddbd v1.5.2PL0 Copyright (c) Steve Scherf et al.
# Submitted via: ExactAudioCopyFreeDBPlugin 1.0
#
DISCID=c3129a21
DTITLE=Various Artist - The History of New Orleans Rhythm and Blues, 19
DTITLE=55-1962
DYEAR=2014
DGENRE=Rhythm and Blues
TTITLE0=Bobby Marchan - Rockin' Behind the Iron Curtain
TTITLE1=Professor Longhair - Go to the Mardi Gras
TTITLE2=Chuck Carbo and His Band - Be My Girl
TTITLE3=Charles Brown and Amos Milburn - Educated Fool
TTITLE4=Robert Parker - All Nite Long (Pt. 2)
TTITLE5=Ernie K-Doe - Make You Love Me
TTITLE6=Fats Domino - I Want to Walk You Home
TTITLE7=Elton Anderson - But I Love You
TTITLE8=Frankie Ford - Alimony
TTITLE9=Ray Washington - I Know
TTITLE10=May Rebennack - Sahara
TTITLE11=Professor Longhair - Cuttin' Out
TTITLE12=Joe and Ann Trio - Gee Baby (You're So Fine)
TTITLE13=The Gondoliers - Knocked Out
TTITLE14=Big Al Downing - When My Blue Moon Turns to Gold
TTITLE15=Paul Marvin - Hurry Up
TTITLE16=Johnny Adams - Come On
TTITLE17=Fats Domino - I'll Always Be in Love with You
TTITLE18=Huey "Piano" Smith and His Band - Would You Believe It
TTITLE19=Alvin "Red" Tyler - Snake Eyes
TTITLE20=Tommy Ridgley - Real Gone Jam
TTITLE21=Lenny Capello and The Dots - Tootles
TTITLE22=Fats Domino - Be My Guest
TTITLE23=Al Johnson - Carnival Time
TTITLE24=Gene and Al's Spaceman - Mercy
TTITLE25=Lee Allen and His Band - Cat Walk
TTITLE26=Art Neville - What's Going On
TTITLE27=Ford Eaglin - Yours Truly
TTITLE28=Chris Kenner - Don't Make No Noise
TTITLE29=Joa Jones - You Talk Too Much
TTITLE30=Al Tousan - Chico
TTITLE31=Champion Jack Dupree - Ici Mo-Mo
TTITLE32=The Bill Parker Band - Boogie Bayou Shuffle
EXTD=
EXTT0=
EXTT1=
EXTT2=
EXTT3=
EXTT4=
EXTT5=
EXTT6=
EXTT7=
EXTT8=
EXTT9=
EXTT10=
EXTT11=
EXTT12=
EXTT13=
EXTT14=
EXTT15=
EXTT16=
EXTT17=
EXTT18=
EXTT19=
EXTT20=
EXTT21=
EXTT22=
EXTT23=
EXTT24=
EXTT25=
EXTT26=
EXTT27=
EXTT28=
EXTT29=
EXTT30=
EXTT31=
EXTT32=
PLAYORDER=
